<?xml version="1.0" encoding="UTF-8"?>
<svg id="Layer_2" xmlns="http://www.w3.org/2000/svg" viewBox="0 0 50 50">
  <defs>
    <style>
      .cls-1, .cls-2, .cls-3 {
        fill: none;
      }

      .cls-2, .cls-3 {
        stroke: #fff;
        stroke-miterlimit: 89.16;
        stroke-width: 2px;
      }

      .cls-3 {
        stroke-linecap: round;
      }
    </style>
  </defs>
  <g id="Layer_1-2" data-name="Layer_1">
    <g>
      <g id="Group_11">
        <path id="Path_53" class="cls-2" d="M26.68,13.39L10.12,29.94c-.28.28-.47.65-.52,1.05l-.38,4.81c-.09.65.37,1.24,1.01,1.33.11.01.21.01.32,0l4.66-.38c.4-.06.76-.24,1.05-.52l16.65-16.65c.6-.52.67-1.44.15-2.04,0,0,0,0,0,0l-4.33-4.33c-.62-.51-1.53-.43-2.04.19,0,0,0,0,0,0Z"/>
        <path id="Path_54" class="cls-3" d="M35.18,14.82l-3.71-3.71c-.7-.67-.72-1.78-.04-2.48.01-.01.03-.03.04-.04l.69-.67c.67-.7,1.78-.72,2.48-.04.01.01.03.03.04.04l3.71,3.71c.7.67.72,1.78.04,2.48-.01.01-.03.03-.04.04l-.69.67c-.71.67-1.81.67-2.52,0Z"/>
        <path id="Path_55" class="cls-3" d="M7.86,42.5s.02,0,.03,0h34.26"/>
      </g>
      <rect class="cls-1" width="50" height="50"/>
    </g>
  </g>
</svg>